<?xml version="1.0" standalone="no"?>
<!DOCTYPE svg PUBLIC "-//W3C//DTD SVG 20010904//EN"
 "http://www.w3.org/TR/2001/REC-SVG-20010904/DTD/svg10.dtd">
<svg version="1.0" xmlns="http://www.w3.org/2000/svg"
 width="512.000000pt" height="512.000000pt" viewBox="0 0 512.000000 512.000000"
 preserveAspectRatio="xMidYMid meet">
<metadata>
Created by potrace 1.11, written by Peter Selinger 2001-2013
</metadata>
<g transform="translate(0.000000,512.000000) scale(0.100000,-0.100000)"
fill="#000000" stroke="none">
<path d="M2320 5110 c-502 -52 -982 -248 -1365 -557 -288 -232 -517 -518 -684
-854 -276 -554 -342 -1167 -191 -1769 86 -344 263 -697 487 -975 232 -288 518
-517 854 -684 391 -195 793 -283 1224 -268 380 14 715 99 1054 268 261 130
467 277 670 480 203 203 350 409 480 670 124 249 204 502 247 784 26 169 26
541 0 710 -43 282 -123 535 -247 784 -253 509 -641 897 -1150 1150 -246 123
-506 205 -779 246 -124 19 -478 28 -600 15z m-480 -2555 l0 -1255 -397 2 -398
3 -3 1253 -2 1252 400 0 400 0 0 -1255z m2248 993 l-3 -263 -517 -3 -518 -2 0
-225 0 -225 435 0 435 0 0 -240 0 -240 -435 0 -435 0 0 -255 0 -255 515 0 515
0 0 -270 0 -270 -910 0 -910 0 0 1255 0 1255 915 0 915 0 -2 -262z"/>
</g>
</svg>
