<?xml version="1.0" standalone="no"?>
<!DOCTYPE svg PUBLIC "-//W3C//DTD SVG 20010904//EN"
 "http://www.w3.org/TR/2001/REC-SVG-20010904/DTD/svg10.dtd">
<svg version="1.0" xmlns="http://www.w3.org/2000/svg"
 width="386.000000pt" height="386.000000pt" viewBox="0 0 386.000000 386.000000"
 preserveAspectRatio="xMidYMid meet">
<metadata>
Created by potrace 1.11, written by Peter Selinger 2001-2013
</metadata>
<g transform="translate(0.000000,386.000000) scale(0.100000,-0.100000)"
fill="#000000" stroke="none">
<path d="M1788 3856 c-1 -2 -34 -6 -73 -10 -38 -3 -82 -8 -97 -11 -16 -3 -38
-7 -50 -9 -13 -2 -61 -14 -108 -26 -580 -147 -1056 -549 -1296 -1094 -52 -118
-114 -316 -129 -411 -3 -22 -8 -53 -11 -70 -21 -121 -26 -411 -9 -540 8 -59
34 -194 47 -240 7 -22 12 -42 13 -45 25 -117 156 -400 249 -538 191 -284 448
-511 741 -655 134 -66 310 -131 411 -151 11 -3 39 -9 64 -15 25 -5 68 -13 95
-17 28 -3 59 -8 70 -11 50 -11 349 -9 454 3 815 98 1468 689 1657 1499 42 179
53 616 19 718 -2 7 -7 30 -10 51 -9 67 -70 289 -84 311 -4 6 -13 28 -20 50
-31 94 -200 398 -240 435 -3 3 -22 25 -41 50 -190 248 -504 480 -805 595 -68
26 -210 71 -250 80 -11 2 -51 11 -90 19 -38 8 -95 18 -125 21 -57 7 -376 16
-382 11z"/>
</g>
</svg>
